<svg width="20" height="20" viewBox="0 0 20 20" fill="none" xmlns="http://www.w3.org/2000/svg">
<path d="M9 12C9.28333 12 9.521 11.904 9.713 11.712C9.905 11.52 10.0007 11.2827 10 11V6C10 5.71667 9.904 5.47933 9.712 5.288C9.52 5.09667 9.28267 5.00067 9 5C8.71733 4.99933 8.48 5.09533 8.288 5.288C8.096 5.48067 8 5.718 8 6V11C8 11.2833 8.096 11.521 8.288 11.713C8.48 11.905 8.71733 12.0007 9 12ZM12 10.5C12.2833 10.5 12.521 10.404 12.713 10.212C12.905 10.02 13.0007 9.78267 13 9.5V7C13 6.71667 12.904 6.47933 12.712 6.288C12.52 6.09667 12.2827 6.00067 12 6C11.7173 5.99933 11.48 6.09533 11.288 6.288C11.096 6.48067 11 6.718 11 7V9.5C11 9.78333 11.096 10.021 11.288 10.213C11.48 10.405 11.7173 10.5007 12 10.5ZM6 10C6.28333 10 6.521 9.904 6.713 9.712C6.905 9.52 7.00067 9.28267 7 9V7C7 6.71667 6.904 6.47933 6.712 6.288C6.52 6.09667 6.28267 6.00067 6 6C5.71733 5.99933 5.48 6.09533 5.288 6.288C5.096 6.48067 5 6.718 5 7V9C5 9.28333 5.096 9.521 5.288 9.713C5.48 9.905 5.71733 10.0007 6 10ZM4 20C3.71667 20 3.47933 19.904 3.288 19.712C3.09667 19.52 3.00067 19.2827 3 19V15.7C2.05 14.8333 1.31267 13.821 0.788 12.663C0.263333 11.505 0.000666667 10.284 0 9C0 6.5 0.875 4.375 2.625 2.625C4.375 0.875 6.5 0 9 0C11.0833 0 12.9293 0.612667 14.538 1.838C16.1467 3.06333 17.1923 4.659 17.675 6.625L18.975 11.75C19.0583 12.0667 19 12.3543 18.8 12.613C18.6 12.8717 18.3333 13.0007 18 13H16V16C16 16.55 15.8043 17.021 15.413 17.413C15.0217 17.805 14.5507 18.0007 14 18H12V19C12 19.2833 11.904 19.521 11.712 19.713C11.52 19.905 11.2827 20.0007 11 20H4Z" fill="#F26869"/>
</svg>
